{"buffers":[{"uri":"GST v2.bin","byteLength":909984}],"asset":{"version":"2.0","generator":"gltfpack 0.16"},"bufferViews":[{"buffer":0,"byteOffset":0,"byteLength":354720,"byteStride":12,"target":34962},{"buffer":0,"byteOffset":354720,"byteLength":354720,"byteStride":12,"target":34962},{"buffer":0,"byteOffset":709440,"byteLength":200544,"target":34963}],"accessors":[{"bufferView":0,"byteOffset":0,"componentType":5126,"count":3245,"type":"VEC3","min":[-3,-3,0],"max":[3,3,56.5]},{"bufferView":1,"byteOffset":0,"componentType":5126,"count":3245,"type":"VEC3"},{"bufferView":2,"byteOffset":0,"componentType":5123,"count":9900,"type":"SCALAR"},{"bufferView":0,"byteOffset":38940,"componentType":5126,"count":2830,"type":"VEC3","min":[-3.08882999,-3.09998989,0],"max":[3.09998989,3.09998989,56.5]},{"bufferView":1,"byteOffset":38940,"componentType":5126,"count":2830,"type":"VEC3"},{"bufferView":2,"byteOffset":19800,"componentType":5123,"count":8724,"type":"SCALAR"},{"bufferView":0,"byteOffset":72900,"componentType":5126,"count":1628,"type":"VEC3","min":[-11.1199903,-11.1199903,-4.34001017],"max":[11.1199903,11.1199903,8.46000004]},{"bufferView":1,"byteOffset":72900,"componentType":5126,"count":1628,"type":"VEC3"},{"bufferView":2,"byteOffset":37248,"componentType":5123,"count":4740,"type":"SCALAR"},{"bufferView":0,"byteOffset":92436,"componentType":5126,"count":356,"type":"VEC3","min":[1.67584312,1.67584312,5.37604618],"max":[2.75418091,2.75418091,5.92474651]},{"bufferView":1,"byteOffset":92436,"componentType":5126,"count":356,"type":"VEC3"},{"bufferView":2,"byteOffset":46728,"componentType":5123,"count":1020,"type":"SCALAR"},{"bufferView":0,"byteOffset":96708,"componentType":5126,"count":356,"type":"VEC3","min":[1.67584312,1.67584312,0.576046407],"max":[2.75418091,2.75418091,1.12474644]},{"bufferView":1,"byteOffset":96708,"componentType":5126,"count":356,"type":"VEC3"},{"bufferView":2,"byteOffset":48768,"componentType":5123,"count":1020,"type":"SCALAR"},{"bufferView":0,"byteOffset":100980,"componentType":5126,"count":356,"type":"VEC3","min":[-2.75418091,1.67584312,5.37604618],"max":[-1.67584312,2.75418091,5.92474651]},{"bufferView":1,"byteOffset":100980,"componentType":5126,"count":356,"type":"VEC3"},{"bufferView":2,"byteOffset":50808,"componentType":5123,"count":1020,"type":"SCALAR"},{"bufferView":0,"byteOffset":105252,"componentType":5126,"count":356,"type":"VEC3","min":[-2.75418091,1.67584312,0.576046407],"max":[-1.67584312,2.75418091,1.12474644]},{"bufferView":1,"byteOffset":105252,"componentType":5126,"count":356,"type":"VEC3"},{"bufferView":2,"byteOffset":52848,"componentType":5123,"count":1020,"type":"SCALAR"},{"bufferView":0,"byteOffset":109524,"componentType":5126,"count":356,"type":"VEC3","min":[-2.75418091,-2.75418091,5.37604618],"max":[-1.67584312,-1.67584312,5.92474651]},{"bufferView":1,"byteOffset":109524,"componentType":5126,"count":356,"type":"VEC3"},{"bufferView":2,"byteOffset":54888,"componentType":5123,"count":1020,"type":"SCALAR"},{"bufferView":0,"byteOffset":113796,"componentType":5126,"count":356,"type":"VEC3","min":[-2.75418091,-2.75418091,0.576046407],"max":[-1.67584312,-1.67584312,1.12474644]},{"bufferView":1,"byteOffset":113796,"componentType":5126,"count":356,"type":"VEC3"},{"bufferView":2,"byteOffset":56928,"componentType":5123,"count":1020,"type":"SCALAR"},{"bufferView":0,"byteOffset":118068,"componentType":5126,"count":356,"type":"VEC3","min":[1.67584312,-2.75418091,5.37604618],"max":[2.75418091,-1.67584312,5.92474651]},{"bufferView":1,"byteOffset":118068,"componentType":5126,"count":356,"type":"VEC3"},{"bufferView":2,"byteOffset":58968,"componentType":5123,"count":1020,"type":"SCALAR"},{"bufferView":0,"byteOffset":122340,"componentType":5126,"count":356,"type":"VEC3","min":[1.67584312,-2.75418091,0.576046407],"max":[2.75418091,-1.67584312,1.12474644]},{"bufferView":1,"byteOffset":122340,"componentType":5126,"count":356,"type":"VEC3"},{"bufferView":2,"byteOffset":61008,"componentType":5123,"count":1020,"type":"SCALAR"},{"bufferView":0,"byteOffset":126612,"componentType":5126,"count":988,"type":"VEC3","min":[-2.79998994,-2.79998994,-4.23400021],"max":[2.79998994,2.79998994,0.600000024]},{"bufferView":1,"byteOffset":126612,"componentType":5126,"count":988,"type":"VEC3"},{"bufferView":2,"byteOffset":63048,"componentType":5123,"count":3012,"type":"SCALAR"},{"bufferView":0,"byteOffset":138468,"componentType":5126,"count":2184,"type":"VEC3","min":[-2.79885006,-2.79998994,0.600000024],"max":[2.79885006,2.79542994,5.89999008]},{"bufferView":1,"byteOffset":138468,"componentType":5126,"count":2184,"type":"VEC3"},{"bufferView":2,"byteOffset":69072,"componentType":5123,"count":6648,"type":"SCALAR"},{"bufferView":0,"byteOffset":164676,"componentType":5126,"count":528,"type":"VEC3","min":[-2.79998994,-2.79998994,5.89999008],"max":[2.79998994,2.79998994,6.39999008]},{"bufferView":1,"byteOffset":164676,"componentType":5126,"count":528,"type":"VEC3"},{"bufferView":2,"byteOffset":82368,"componentType":5123,"count":1620,"type":"SCALAR"},{"bufferView":0,"byteOffset":171012,"componentType":5126,"count":336,"type":"VEC3","min":[-0.274260014,2.27519011,5.4000001],"max":[0.275000006,2.82481003,6.69999981]},{"bufferView":1,"byteOffset":171012,"componentType":5126,"count":336,"type":"VEC3"},{"bufferView":2,"byteOffset":85608,"componentType":5123,"count":960,"type":"SCALAR"},{"bufferView":0,"byteOffset":175044,"componentType":5126,"count":336,"type":"VEC3","min":[2.27573991,-0.274809986,5.4000001],"max":[2.82500005,0.274809986,6.69999981]},{"bufferView":1,"byteOffset":175044,"componentType":5126,"count":336,"type":"VEC3"},{"bufferView":2,"byteOffset":87528,"componentType":5123,"count":960,"type":"SCALAR"},{"bufferView":0,"byteOffset":179076,"componentType":5126,"count":336,"type":"VEC3","min":[-2.82426,-0.274809986,5.4000001],"max":[-2.2750001,0.274809986,6.69999981]},{"bufferView":1,"byteOffset":179076,"componentType":5126,"count":336,"type":"VEC3"},{"bufferView":2,"byteOffset":89448,"componentType":5123,"count":960,"type":"SCALAR"},{"bufferView":0,"byteOffset":183108,"componentType":5126,"count":336,"type":"VEC3","min":[-0.274260014,-2.82481003,5.4000001],"max":[0.275000006,-2.27519011,6.69999981]},{"bufferView":1,"byteOffset":183108,"componentType":5126,"count":336,"type":"VEC3"},{"bufferView":2,"byteOffset":91368,"componentType":5123,"count":960,"type":"SCALAR"},{"bufferView":0,"byteOffset":187140,"componentType":5126,"count":336,"type":"VEC3","min":[-0.274260014,2.27519011,0.100000001],"max":[0.275000006,2.82481003,1.39999998]},{"bufferView":1,"byteOffset":187140,"componentType":5126,"count":336,"type":"VEC3"},{"bufferView":2,"byteOffset":93288,"componentType":5123,"count":960,"type":"SCALAR"},{"bufferView":0,"byteOffset":191172,"componentType":5126,"count":336,"type":"VEC3","min":[-0.274260014,-2.82481003,0.100000001],"max":[0.275000006,-2.27519011,1.39999998]},{"bufferView":1,"byteOffset":191172,"componentType":5126,"count":336,"type":"VEC3"},{"bufferView":2,"byteOffset":95208,"componentType":5123,"count":960,"type":"SCALAR"},{"bufferView":0,"byteOffset":195204,"componentType":5126,"count":336,"type":"VEC3","min":[2.27573991,-0.274809986,0.100000001],"max":[2.82500005,0.274809986,1.39999998]},{"bufferView":1,"byteOffset":195204,"componentType":5126,"count":336,"type":"VEC3"},{"bufferView":2,"byteOffset":97128,"componentType":5123,"count":960,"type":"SCALAR"},{"bufferView":0,"byteOffset":199236,"componentType":5126,"count":336,"type":"VEC3","min":[-2.82426,-0.274809986,0.100000001],"max":[-2.2750001,0.274809986,1.39999998]},{"bufferView":1,"byteOffset":199236,"componentType":5126,"count":336,"type":"VEC3"},{"bufferView":2,"byteOffset":99048,"componentType":5123,"count":960,"type":"SCALAR"},{"bufferView":0,"byteOffset":203268,"componentType":5126,"count":1376,"type":"VEC3","min":[-2.9000001,-2.9000001,33],"max":[2.9000001,2.9000001,36]},{"bufferView":1,"byteOffset":203268,"componentType":5126,"count":1376,"type":"VEC3"},{"bufferView":2,"byteOffset":100968,"componentType":5123,"count":4152,"type":"SCALAR"},{"bufferView":0,"byteOffset":219780,"componentType":5126,"count":749,"type":"VEC3","min":[-0.424190015,2.15015507,33.3334503],"max":[0.425000012,3.29705501,34.1830292]},{"bufferView":1,"byteOffset":219780,"componentType":5126,"count":749,"type":"VEC3"},{"bufferView":2,"byteOffset":109272,"componentType":5123,"count":3132,"type":"SCALAR"},{"bufferView":0,"byteOffset":228768,"componentType":5126,"count":749,"type":"VEC3","min":[-2.93466544,-1.91742682,33.3334503],"max":[-1.86208892,-1.07507753,34.1830292]},{"bufferView":1,"byteOffset":228768,"componentType":5126,"count":749,"type":"VEC3"},{"bufferView":2,"byteOffset":115536,"componentType":5123,"count":3132,"type":"SCALAR"},{"bufferView":0,"byteOffset":237756,"componentType":5126,"count":749,"type":"VEC3","min":[1.86208892,-1.91812825,33.3334503],"max":[2.93466544,-1.07507753,34.1830292]},{"bufferView":1,"byteOffset":237756,"componentType":5126,"count":749,"type":"VEC3"},{"bufferView":2,"byteOffset":121800,"componentType":5123,"count":3132,"type":"SCALAR"},{"bufferView":0,"byteOffset":246744,"componentType":5126,"count":677,"type":"VEC3","min":[-0.425000012,1.80015504,34.8332405],"max":[0.425000012,3.29705501,35.683239]},{"bufferView":1,"byteOffset":246744,"componentType":5126,"count":677,"type":"VEC3"},{"bufferView":2,"byteOffset":128064,"componentType":5123,"count":2754,"type":"SCALAR"},{"bufferView":0,"byteOffset":254868,"componentType":5126,"count":677,"type":"VEC3","min":[-2.93430781,-1.91812825,34.8332405],"max":[-1.55897999,-0.900077522,35.683239]},{"bufferView":1,"byteOffset":254868,"componentType":5126,"count":677,"type":"VEC3"},{"bufferView":2,"byteOffset":133572,"componentType":5123,"count":2754,"type":"SCALAR"},{"bufferView":0,"byteOffset":262992,"componentType":5126,"count":677,"type":"VEC3","min":[1.55897999,-1.91812825,34.8332405],"max":[2.93430781,-0.900077522,35.683239]},{"bufferView":1,"byteOffset":262992,"componentType":5126,"count":677,"type":"VEC3"},{"bufferView":2,"byteOffset":139080,"componentType":5123,"count":2754,"type":"SCALAR"},{"bufferView":0,"byteOffset":271116,"componentType":5126,"count":749,"type":"VEC3","min":[-1.5406003,2.20484567,22.5752239],"max":[-0.743866265,3.32030129,23.4248028]},{"bufferView":1,"byteOffset":271116,"componentType":5126,"count":749,"type":"VEC3"},{"bufferView":2,"byteOffset":144588,"componentType":5123,"count":3132,"type":"SCALAR"},{"bufferView":0,"byteOffset":280104,"componentType":5126,"count":749,"type":"VEC3","min":[-3.29073358,0.834165215,22.5752487],"max":[-2.18106627,1.62230635,23.4248295]},{"bufferView":1,"byteOffset":280104,"componentType":5126,"count":749,"type":"VEC3"},{"bufferView":2,"byteOffset":150852,"componentType":5123,"count":3132,"type":"SCALAR"},{"bufferView":0,"byteOffset":289092,"componentType":5126,"count":515,"type":"VEC3","min":[1.93054199,-3.59579968,25],"max":[3.59579968,-1.93054199,30.0499992]},{"bufferView":1,"byteOffset":289092,"componentType":5126,"count":515,"type":"VEC3"},{"bufferView":2,"byteOffset":157116,"componentType":5123,"count":1824,"type":"SCALAR"},{"bufferView":0,"byteOffset":295272,"componentType":5126,"count":749,"type":"VEC3","min":[-1.56341171,2.26669908,36.825222],"max":[-0.766677737,3.3821547,37.6748047]},{"bufferView":1,"byteOffset":295272,"componentType":5126,"count":749,"type":"VEC3"},{"bufferView":2,"byteOffset":160764,"componentType":5123,"count":3132,"type":"SCALAR"},{"bufferView":0,"byteOffset":304260,"componentType":5126,"count":749,"type":"VEC3","min":[-3.29080439,0.834193647,36.8252487],"max":[-2.18113708,1.62233484,37.6748276]},{"bufferView":1,"byteOffset":304260,"componentType":5126,"count":749,"type":"VEC3"},{"bufferView":2,"byteOffset":167028,"componentType":5123,"count":3132,"type":"SCALAR"},{"bufferView":0,"byteOffset":313248,"componentType":5126,"count":528,"type":"VEC3","min":[-3.68468428,0.0867900103,36],"max":[-0.0867906138,3.68469071,38.5]},{"bufferView":1,"byteOffset":313248,"componentType":5126,"count":528,"type":"VEC3"},{"bufferView":2,"byteOffset":173292,"componentType":5123,"count":1524,"type":"SCALAR"},{"bufferView":0,"byteOffset":319584,"componentType":5126,"count":1911,"type":"VEC3","min":[-3.10003996,-3.09797001,54.3000069],"max":[3.09176993,3.09797001,69.2005386]},{"bufferView":1,"byteOffset":319584,"componentType":5126,"count":1911,"type":"VEC3"},{"bufferView":2,"byteOffset":176340,"componentType":5123,"count":7992,"type":"SCALAR"},{"bufferView":0,"byteOffset":342516,"componentType":5126,"count":1017,"type":"VEC3","min":[-3.60049891,0.282788068,21.5],"max":[-0.28278923,3.60049057,24.5]},{"bufferView":1,"byteOffset":342516,"componentType":5126,"count":1017,"type":"VEC3"},{"bufferView":2,"byteOffset":192324,"componentType":5123,"count":4110,"type":"SCALAR"}],"materials":[{"pbrMetallicRoughness":{"baseColorFactor":[0.43921569,0.501960814,0.564705908,1],"metallicFactor":0},"doubleSided":true},{"pbrMetallicRoughness":{"baseColorFactor":[0.0980392173,0.0980392173,0.0980392173,1],"metallicFactor":0},"doubleSided":true},{"pbrMetallicRoughness":{"baseColorFactor":[0.627451003,0.627451003,0.627451003,1],"metallicFactor":0},"doubleSided":true},{"pbrMetallicRoughness":{"baseColorFactor":[0.494117647,0.494117647,0.525490224,1],"metallicFactor":0},"doubleSided":true}],"meshes":[{"primitives":[{"attributes":{"POSITION":0,"NORMAL":1},"mode":4,"indices":2,"material":0}]},{"primitives":[{"attributes":{"POSITION":3,"NORMAL":4},"mode":4,"indices":5,"material":1}]},{"primitives":[{"attributes":{"POSITION":6,"NORMAL":7},"mode":4,"indices":8,"material":2}]},{"primitives":[{"attributes":{"POSITION":9,"NORMAL":10},"mode":4,"indices":11,"material":2}]},{"primitives":[{"attributes":{"POSITION":12,"NORMAL":13},"mode":4,"indices":14,"material":2}]},{"primitives":[{"attributes":{"POSITION":15,"NORMAL":16},"mode":4,"indices":17,"material":2}]},{"primitives":[{"attributes":{"POSITION":18,"NORMAL":19},"mode":4,"indices":20,"material":2}]},{"primitives":[{"attributes":{"POSITION":21,"NORMAL":22},"mode":4,"indices":23,"material":2}]},{"primitives":[{"attributes":{"POSITION":24,"NORMAL":25},"mode":4,"indices":26,"material":2}]},{"primitives":[{"attributes":{"POSITION":27,"NORMAL":28},"mode":4,"indices":29,"material":2}]},{"primitives":[{"attributes":{"POSITION":30,"NORMAL":31},"mode":4,"indices":32,"material":2}]},{"primitives":[{"attributes":{"POSITION":33,"NORMAL":34},"mode":4,"indices":35,"material":2}]},{"primitives":[{"attributes":{"POSITION":36,"NORMAL":37},"mode":4,"indices":38,"material":2}]},{"primitives":[{"attributes":{"POSITION":39,"NORMAL":40},"mode":4,"indices":41,"material":2}]},{"primitives":[{"attributes":{"POSITION":42,"NORMAL":43},"mode":4,"indices":44,"material":2}]},{"primitives":[{"attributes":{"POSITION":45,"NORMAL":46},"mode":4,"indices":47,"material":2}]},{"primitives":[{"attributes":{"POSITION":48,"NORMAL":49},"mode":4,"indices":50,"material":2}]},{"primitives":[{"attributes":{"POSITION":51,"NORMAL":52},"mode":4,"indices":53,"material":2}]},{"primitives":[{"attributes":{"POSITION":54,"NORMAL":55},"mode":4,"indices":56,"material":2}]},{"primitives":[{"attributes":{"POSITION":57,"NORMAL":58},"mode":4,"indices":59,"material":2}]},{"primitives":[{"attributes":{"POSITION":60,"NORMAL":61},"mode":4,"indices":62,"material":2}]},{"primitives":[{"attributes":{"POSITION":63,"NORMAL":64},"mode":4,"indices":65,"material":2}]},{"primitives":[{"attributes":{"POSITION":66,"NORMAL":67},"mode":4,"indices":68,"material":0}]},{"primitives":[{"attributes":{"POSITION":69,"NORMAL":70},"mode":4,"indices":71,"material":2}]},{"primitives":[{"attributes":{"POSITION":72,"NORMAL":73},"mode":4,"indices":74,"material":2}]},{"primitives":[{"attributes":{"POSITION":75,"NORMAL":76},"mode":4,"indices":77,"material":2}]},{"primitives":[{"attributes":{"POSITION":78,"NORMAL":79},"mode":4,"indices":80,"material":2}]},{"primitives":[{"attributes":{"POSITION":81,"NORMAL":82},"mode":4,"indices":83,"material":2}]},{"primitives":[{"attributes":{"POSITION":84,"NORMAL":85},"mode":4,"indices":86,"material":2}]},{"primitives":[{"attributes":{"POSITION":87,"NORMAL":88},"mode":4,"indices":89,"material":2}]},{"primitives":[{"attributes":{"POSITION":90,"NORMAL":91},"mode":4,"indices":92,"material":2}]},{"primitives":[{"attributes":{"POSITION":93,"NORMAL":94},"mode":4,"indices":95,"material":2}]},{"primitives":[{"attributes":{"POSITION":96,"NORMAL":97},"mode":4,"indices":98,"material":2}]},{"primitives":[{"attributes":{"POSITION":99,"NORMAL":100},"mode":4,"indices":101,"material":2}]},{"primitives":[{"attributes":{"POSITION":102,"NORMAL":103},"mode":4,"indices":104,"material":2}]},{"primitives":[{"attributes":{"POSITION":105,"NORMAL":106},"mode":4,"indices":107,"material":0}]},{"primitives":[{"attributes":{"POSITION":108,"NORMAL":109},"mode":4,"indices":110,"material":3}]}],"nodes":[{"mesh":0},{"mesh":1},{"mesh":2},{"mesh":3},{"mesh":4},{"mesh":5},{"mesh":6},{"mesh":7},{"mesh":8},{"mesh":9},{"mesh":10},{"mesh":11},{"mesh":12},{"mesh":13},{"mesh":14},{"mesh":15},{"mesh":16},{"mesh":17},{"mesh":18},{"mesh":19},{"mesh":20},{"mesh":21},{"mesh":22},{"mesh":23},{"mesh":24},{"mesh":25},{"mesh":26},{"mesh":27},{"mesh":28},{"mesh":29},{"mesh":30},{"mesh":31},{"mesh":32},{"mesh":33},{"mesh":34},{"mesh":35},{"mesh":36},{"children":[0]},{"children":[1]},{"name":"fin final for ansys v1","children":[2]},{"name":"screw M3*8 v1","children":[3]},{"name":"screw M3*8 v1","children":[4]},{"name":"screw M3*8 v1","children":[5]},{"name":"screw M3*8 v1","children":[6]},{"name":"screw M3*8 v1","children":[7]},{"name":"screw M3*8 v1","children":[8]},{"name":"screw M3*8 v1","children":[9]},{"name":"screw M3*8 v1","children":[10]},{"name":"engine final v1","children":[11]},{"name":"engine final v1","children":[12]},{"name":"engine final v1","children":[13]},{"name":"screw M3*10 v1","children":[14]},{"name":"screw M3*10 v1","children":[15]},{"name":"screw M3*10 v1","children":[16]},{"name":"screw M3*10 v1","children":[17]},{"name":"screw M3*10 v1","children":[18]},{"name":"screw M3*10 v1","children":[19]},{"name":"screw M3*10 v1","children":[20]},{"name":"screw M3*10 v1","children":[21]},{"name":"center structure final for ansys v1","children":[22]},{"name":"screw 5/32*3/8??R3.5 9.5mm) v1","children":[23]},{"name":"screw 5/32*3/8??R3.5 9.5mm) v1","children":[24]},{"name":"screw 5/32*3/8??R3.5 9.5mm) v1","children":[25]},{"name":"screw 5/32*1/2??R3.5 13mm) v1","children":[26]},{"name":"screw 5/32*1/2??R3.5 13mm) v1","children":[27]},{"name":"screw 5/32*1/2??R3.5 13mm) v1","children":[28]},{"name":"screw 5/32*1/2??R3.5 13mm) v1","children":[29]},{"name":"screw 5/32*1/2??R3.5 13mm) v1","children":[30]},{"name":"screw 5/32*1/2??R3.5 13mm) v1","children":[31]},{"name":"screw 5/32*3/8??R3.5 9.5mm) v1","children":[32]},{"name":"screw 5/32*3/8??R3.5 9.5mm) v1","children":[33]},{"name":"antenna small v1","children":[34]},{"name":"screw 5/32*3/8??R3.5 9.5mm) v1","children":[35]},{"name":"screw 5/32*3/8??R3.5 9.5mm) v1","children":[36]}],"scenes":[{"nodes":[37,38,39,40,41,42,43,44,45,46,47,48,49,50,51,52,53,54,55,56,57,58,59,60,61,62,63,64,65,66,67,68,69,70,71,72,73]}]}